<svg width="18" height="18" viewBox="0 0 18 18" fill="none" xmlns="http://www.w3.org/2000/svg">
<path d="M7.49975 17.25C7.49975 17.4489 7.42074 17.6397 7.28009 17.7803C7.13944 17.921 6.94868 18 6.74978 18H1.49995C1.10214 18 0.720621 17.842 0.439325 17.5607C0.15803 17.2794 0 16.8978 0 16.5V1.5C0 1.10218 0.15803 0.720644 0.439325 0.43934C0.720621 0.158035 1.10214 0 1.49995 0H6.74978C6.94868 0 7.13944 0.0790178 7.28009 0.21967C7.42074 0.360322 7.49975 0.551088 7.49975 0.75C7.49975 0.948912 7.42074 1.13968 7.28009 1.28033C7.13944 1.42098 6.94868 1.5 6.74978 1.5H1.49995V16.5H6.74978C6.94868 16.5 7.13944 16.579 7.28009 16.7197C7.42074 16.8603 7.49975 17.0511 7.49975 17.25ZM17.78 8.46937L14.0302 4.71937C13.8894 4.57864 13.6986 4.49958 13.4996 4.49958C13.3005 4.49958 13.1097 4.57864 12.969 4.71937C12.8282 4.86011 12.7492 5.05098 12.7492 5.25C12.7492 5.44902 12.8282 5.63989 12.969 5.78063L15.4392 8.25H6.74978C6.55087 8.25 6.36011 8.32902 6.21947 8.46967C6.07882 8.61032 5.9998 8.80109 5.9998 9C5.9998 9.19891 6.07882 9.38968 6.21947 9.53033C6.36011 9.67098 6.55087 9.75 6.74978 9.75H15.4392L12.969 12.2194C12.8282 12.3601 12.7492 12.551 12.7492 12.75C12.7492 12.949 12.8282 13.1399 12.969 13.2806C13.1097 13.4214 13.3005 13.5004 13.4996 13.5004C13.6986 13.5004 13.8894 13.4214 14.0302 13.2806L17.78 9.53063C17.8498 9.46097 17.9051 9.37825 17.9428 9.2872C17.9806 9.19616 18 9.09856 18 9C18 8.90144 17.9806 8.80384 17.9428 8.7128C17.9051 8.62175 17.8498 8.53903 17.78 8.46937Z" fill="#1C1C1C"/>
</svg>
